<svg width="242" height="95" viewBox="0 0 242 95" fill="none" xmlns="http://www.w3.org/2000/svg">
<path d="M71.032 61.288C69.736 61.288 68.528 61.08 67.408 60.664C66.304 60.232 65.344 59.624 64.528 58.84C63.712 58.056 63.072 57.136 62.608 56.08C62.16 55.024 61.936 53.864 61.936 52.6C61.936 51.336 62.16 50.176 62.608 49.12C63.072 48.064 63.712 47.144 64.528 46.36C65.36 45.576 66.328 44.976 67.432 44.56C68.536 44.128 69.744 43.912 71.056 43.912C72.512 43.912 73.824 44.168 74.992 44.68C76.176 45.176 77.168 45.912 77.968 46.888L75.472 49.192C74.896 48.536 74.256 48.048 73.552 47.728C72.848 47.392 72.08 47.224 71.248 47.224C70.464 47.224 69.744 47.352 69.088 47.608C68.432 47.864 67.864 48.232 67.384 48.712C66.904 49.192 66.528 49.76 66.256 50.416C66 51.072 65.872 51.8 65.872 52.6C65.872 53.4 66 54.128 66.256 54.784C66.528 55.44 66.904 56.008 67.384 56.488C67.864 56.968 68.432 57.336 69.088 57.592C69.744 57.848 70.464 57.976 71.248 57.976C72.08 57.976 72.848 57.816 73.552 57.496C74.256 57.16 74.896 56.656 75.472 55.984L77.968 58.288C77.168 59.264 76.176 60.008 74.992 60.52C73.824 61.032 72.504 61.288 71.032 61.288ZM80.2141 61V48.088H93.0541V61H89.3101V50.32L90.1501 51.16H83.0941L83.9341 50.32V61H80.2141ZM104.372 61V58.48L104.132 57.928V53.416C104.132 52.616 103.884 51.992 103.388 51.544C102.908 51.096 102.164 50.872 101.156 50.872C100.468 50.872 99.7878 50.984 99.1158 51.208C98.4598 51.416 97.8998 51.704 97.4358 52.072L96.0918 49.456C96.7958 48.96 97.6438 48.576 98.6358 48.304C99.6278 48.032 100.636 47.896 101.66 47.896C103.628 47.896 105.156 48.36 106.244 49.288C107.332 50.216 107.876 51.664 107.876 53.632V61H104.372ZM100.436 61.192C99.4278 61.192 98.5638 61.024 97.8438 60.688C97.1238 60.336 96.5718 59.864 96.1878 59.272C95.8038 58.68 95.6118 58.016 95.6118 57.28C95.6118 56.512 95.7958 55.84 96.1638 55.264C96.5478 54.688 97.1478 54.24 97.9638 53.92C98.7798 53.584 99.8438 53.416 101.156 53.416H104.588V55.6H101.564C100.684 55.6 100.076 55.744 99.7398 56.032C99.4198 56.32 99.2598 56.68 99.2598 57.112C99.2598 57.592 99.4438 57.976 99.8118 58.264C100.196 58.536 100.716 58.672 101.372 58.672C101.996 58.672 102.556 58.528 103.052 58.24C103.548 57.936 103.908 57.496 104.132 56.92L104.708 58.648C104.436 59.48 103.94 60.112 103.22 60.544C102.5 60.976 101.572 61.192 100.436 61.192ZM117.272 61.192C115.88 61.192 114.64 60.912 113.552 60.352C112.464 59.776 111.608 58.984 110.984 57.976C110.376 56.968 110.072 55.824 110.072 54.544C110.072 53.248 110.376 52.104 110.984 51.112C111.608 50.104 112.464 49.32 113.552 48.76C114.64 48.184 115.88 47.896 117.272 47.896C118.632 47.896 119.816 48.184 120.824 48.76C121.832 49.32 122.576 50.128 123.056 51.184L120.152 52.744C119.816 52.136 119.392 51.688 118.88 51.4C118.384 51.112 117.84 50.968 117.248 50.968C116.608 50.968 116.032 51.112 115.52 51.4C115.008 51.688 114.6 52.096 114.296 52.624C114.008 53.152 113.864 53.792 113.864 54.544C113.864 55.296 114.008 55.936 114.296 56.464C114.6 56.992 115.008 57.4 115.52 57.688C116.032 57.976 116.608 58.12 117.248 58.12C117.84 58.12 118.384 57.984 118.88 57.712C119.392 57.424 119.816 56.968 120.152 56.344L123.056 57.928C122.576 58.968 121.832 59.776 120.824 60.352C119.816 60.912 118.632 61.192 117.272 61.192ZM125.331 61V48.088H129.051V55.768L135.339 48.088H138.771V61H135.051V53.32L128.787 61H125.331ZM148.778 61.288C147.722 61.288 146.762 61.136 145.898 60.832C145.034 60.512 144.282 60.024 143.642 59.368C143.018 58.696 142.53 57.84 142.178 56.8C141.842 55.76 141.674 54.52 141.674 53.08C141.674 52.056 141.762 51.12 141.938 50.272C142.114 49.424 142.378 48.656 142.73 47.968C143.082 47.264 143.53 46.648 144.074 46.12C144.634 45.576 145.282 45.128 146.018 44.776C146.77 44.408 147.618 44.128 148.562 43.936L154.706 42.712L155.21 45.928L149.786 47.008C149.466 47.072 149.098 47.16 148.682 47.272C148.282 47.368 147.874 47.52 147.458 47.728C147.058 47.936 146.682 48.232 146.33 48.616C145.994 48.984 145.722 49.472 145.514 50.08C145.306 50.672 145.202 51.408 145.202 52.288C145.202 52.56 145.21 52.768 145.226 52.912C145.258 53.056 145.282 53.208 145.298 53.368C145.33 53.528 145.346 53.776 145.346 54.112L144.146 52.936C144.498 52.184 144.946 51.544 145.49 51.016C146.05 50.488 146.69 50.088 147.41 49.816C148.146 49.528 148.962 49.384 149.858 49.384C151.074 49.384 152.138 49.632 153.05 50.128C153.978 50.608 154.698 51.288 155.21 52.168C155.722 53.048 155.978 54.048 155.978 55.168C155.978 56.384 155.674 57.456 155.066 58.384C154.458 59.296 153.61 60.008 152.522 60.52C151.45 61.032 150.202 61.288 148.778 61.288ZM148.97 58.384C149.594 58.384 150.146 58.248 150.626 57.976C151.106 57.688 151.474 57.312 151.73 56.848C152.002 56.368 152.138 55.832 152.138 55.24C152.138 54.664 152.002 54.152 151.73 53.704C151.474 53.256 151.106 52.904 150.626 52.648C150.146 52.392 149.586 52.264 148.946 52.264C148.322 52.264 147.762 52.392 147.266 52.648C146.77 52.888 146.386 53.224 146.114 53.656C145.842 54.088 145.706 54.592 145.706 55.168C145.706 55.76 145.842 56.304 146.114 56.8C146.402 57.28 146.786 57.664 147.266 57.952C147.762 58.24 148.33 58.384 148.97 58.384ZM164.567 61.192C163.191 61.192 161.967 60.904 160.895 60.328C159.839 59.752 158.999 58.968 158.375 57.976C157.767 56.968 157.463 55.824 157.463 54.544C157.463 53.248 157.767 52.104 158.375 51.112C158.999 50.104 159.839 49.32 160.895 48.76C161.967 48.184 163.191 47.896 164.567 47.896C165.927 47.896 167.143 48.184 168.215 48.76C169.287 49.32 170.127 50.096 170.735 51.088C171.343 52.08 171.647 53.232 171.647 54.544C171.647 55.824 171.343 56.968 170.735 57.976C170.127 58.968 169.287 59.752 168.215 60.328C167.143 60.904 165.927 61.192 164.567 61.192ZM164.567 58.12C165.191 58.12 165.751 57.976 166.247 57.688C166.743 57.4 167.135 56.992 167.423 56.464C167.711 55.92 167.855 55.28 167.855 54.544C167.855 53.792 167.711 53.152 167.423 52.624C167.135 52.096 166.743 51.688 166.247 51.4C165.751 51.112 165.191 50.968 164.567 50.968C163.943 50.968 163.383 51.112 162.887 51.4C162.391 51.688 161.991 52.096 161.687 52.624C161.399 53.152 161.255 53.792 161.255 54.544C161.255 55.28 161.399 55.92 161.687 56.464C161.991 56.992 162.391 57.4 162.887 57.688C163.383 57.976 163.943 58.12 164.567 58.12ZM174.414 55.168L173.67 44.2H178.134L177.39 55.168H174.414ZM175.902 61.192C175.23 61.192 174.678 60.976 174.246 60.544C173.814 60.112 173.598 59.6 173.598 59.008C173.598 58.4 173.814 57.896 174.246 57.496C174.678 57.08 175.23 56.872 175.902 56.872C176.59 56.872 177.142 57.08 177.558 57.496C177.99 57.896 178.206 58.4 178.206 59.008C178.206 59.6 177.99 60.112 177.558 60.544C177.142 60.976 176.59 61.192 175.902 61.192Z" fill="black"/>
<path d="M5.03906 86.0122H2.33643L2.32178 84.877H4.77539C5.18066 84.877 5.53467 84.8086 5.8374 84.6719C6.14014 84.5352 6.37451 84.3398 6.54053 84.0859C6.71143 83.8271 6.79688 83.5195 6.79688 83.1631C6.79688 82.7725 6.72119 82.4551 6.56982 82.2109C6.42334 81.9619 6.19629 81.7812 5.88867 81.6689C5.58594 81.5518 5.2002 81.4932 4.73145 81.4932H2.65137V91H1.23779V80.3359H4.73145C5.27832 80.3359 5.7666 80.3921 6.19629 80.5044C6.62598 80.6118 6.98975 80.7827 7.2876 81.0171C7.59033 81.2466 7.81982 81.5396 7.97607 81.896C8.13232 82.2524 8.21045 82.6797 8.21045 83.1777C8.21045 83.6172 8.09814 84.0151 7.87354 84.3716C7.64893 84.7231 7.33643 85.0112 6.93604 85.2358C6.54053 85.4604 6.07666 85.6045 5.54443 85.668L5.03906 86.0122ZM4.97314 91H1.77979L2.57812 89.8501H4.97314C5.42236 89.8501 5.80322 89.772 6.11572 89.6157C6.43311 89.4595 6.6748 89.2397 6.84082 88.9565C7.00684 88.6685 7.08984 88.3291 7.08984 87.9385C7.08984 87.543 7.01904 87.2012 6.87744 86.9131C6.73584 86.625 6.51367 86.4028 6.21094 86.2466C5.9082 86.0903 5.51758 86.0122 5.03906 86.0122H3.0249L3.03955 84.877H5.79346L6.09375 85.2871C6.60645 85.3311 7.04102 85.4775 7.39746 85.7266C7.75391 85.9707 8.0249 86.2832 8.21045 86.6641C8.40088 87.0449 8.49609 87.4648 8.49609 87.9238C8.49609 88.5879 8.34961 89.1494 8.05664 89.6084C7.76855 90.0625 7.36084 90.4092 6.8335 90.6484C6.30615 90.8828 5.68604 91 4.97314 91ZM15.0513 89.645V85.5654C15.0513 85.2529 14.9878 84.9819 14.8608 84.7524C14.7388 84.5181 14.5532 84.3374 14.3042 84.2104C14.0552 84.0835 13.7476 84.02 13.3813 84.02C13.0396 84.02 12.7393 84.0786 12.4805 84.1958C12.2266 84.313 12.0264 84.4668 11.8799 84.6572C11.7383 84.8477 11.6675 85.0527 11.6675 85.2725H10.3125C10.3125 84.9893 10.3857 84.7085 10.5322 84.4302C10.6787 84.1519 10.8887 83.9004 11.1621 83.6758C11.4404 83.4463 11.7725 83.2656 12.1582 83.1338C12.5488 82.9971 12.9834 82.9287 13.4619 82.9287C14.0381 82.9287 14.5459 83.0264 14.9854 83.2217C15.4297 83.417 15.7764 83.7124 16.0254 84.1079C16.2793 84.4985 16.4062 84.9893 16.4062 85.5801V89.2715C16.4062 89.5352 16.4282 89.8159 16.4722 90.1138C16.521 90.4116 16.5918 90.668 16.6846 90.8828V91H15.271C15.2026 90.8438 15.1489 90.6362 15.1099 90.3774C15.0708 90.1138 15.0513 89.8696 15.0513 89.645ZM15.2856 86.1953L15.3003 87.1475H13.9307C13.5449 87.1475 13.2007 87.1792 12.8979 87.2427C12.5952 87.3013 12.3413 87.3916 12.1362 87.5137C11.9312 87.6357 11.7749 87.7896 11.6675 87.9751C11.5601 88.1558 11.5063 88.3682 11.5063 88.6123C11.5063 88.8613 11.5625 89.0884 11.6748 89.2935C11.7871 89.4985 11.9556 89.6621 12.1802 89.7842C12.4097 89.9014 12.6904 89.96 13.0225 89.96C13.4375 89.96 13.8037 89.8721 14.1211 89.6963C14.4385 89.5205 14.6899 89.3057 14.8755 89.0518C15.0659 88.7979 15.1685 88.5513 15.1831 88.312L15.7617 88.9639C15.7275 89.1689 15.6348 89.396 15.4834 89.645C15.332 89.894 15.1294 90.1333 14.8755 90.3628C14.6265 90.5874 14.3286 90.7754 13.9819 90.9268C13.6401 91.0732 13.2544 91.1465 12.8247 91.1465C12.2876 91.1465 11.8164 91.0415 11.4111 90.8315C11.0107 90.6216 10.6982 90.3408 10.4736 89.9893C10.2539 89.6328 10.144 89.2349 10.144 88.7954C10.144 88.3706 10.2271 87.9971 10.3931 87.6748C10.5591 87.3477 10.7983 87.0767 11.1108 86.8618C11.4233 86.6421 11.7993 86.4761 12.2388 86.3638C12.6782 86.2515 13.1689 86.1953 13.7109 86.1953H15.2856ZM18.6548 83.0752H20.0098V89.8867H22.9102V83.0752H24.2725V89.8867H27.1655V83.0752H28.5205V91H18.6548V83.0752ZM35.354 89.645V85.5654C35.354 85.2529 35.2905 84.9819 35.1636 84.7524C35.0415 84.5181 34.856 84.3374 34.6069 84.2104C34.3579 84.0835 34.0503 84.02 33.6841 84.02C33.3423 84.02 33.042 84.0786 32.7832 84.1958C32.5293 84.313 32.3291 84.4668 32.1826 84.6572C32.041 84.8477 31.9702 85.0527 31.9702 85.2725H30.6152C30.6152 84.9893 30.6885 84.7085 30.835 84.4302C30.9814 84.1519 31.1914 83.9004 31.4648 83.6758C31.7432 83.4463 32.0752 83.2656 32.4609 83.1338C32.8516 82.9971 33.2861 82.9287 33.7646 82.9287C34.3408 82.9287 34.8486 83.0264 35.2881 83.2217C35.7324 83.417 36.0791 83.7124 36.3281 84.1079C36.582 84.4985 36.709 84.9893 36.709 85.5801V89.2715C36.709 89.5352 36.731 89.8159 36.7749 90.1138C36.8237 90.4116 36.8945 90.668 36.9873 90.8828V91H35.5737C35.5054 90.8438 35.4517 90.6362 35.4126 90.3774C35.3735 90.1138 35.354 89.8696 35.354 89.645ZM35.5884 86.1953L35.603 87.1475H34.2334C33.8477 87.1475 33.5034 87.1792 33.2007 87.2427C32.8979 87.3013 32.644 87.3916 32.439 87.5137C32.2339 87.6357 32.0776 87.7896 31.9702 87.9751C31.8628 88.1558 31.8091 88.3682 31.8091 88.6123C31.8091 88.8613 31.8652 89.0884 31.9775 89.2935C32.0898 89.4985 32.2583 89.6621 32.4829 89.7842C32.7124 89.9014 32.9932 89.96 33.3252 89.96C33.7402 89.96 34.1064 89.8721 34.4238 89.6963C34.7412 89.5205 34.9927 89.3057 35.1782 89.0518C35.3687 88.7979 35.4712 88.5513 35.4858 88.312L36.0645 88.9639C36.0303 89.1689 35.9375 89.396 35.7861 89.645C35.6348 89.894 35.4321 90.1333 35.1782 90.3628C34.9292 90.5874 34.6313 90.7754 34.2847 90.9268C33.9429 91.0732 33.5571 91.1465 33.1274 91.1465C32.5903 91.1465 32.1191 91.0415 31.7139 90.8315C31.3135 90.6216 31.001 90.3408 30.7764 89.9893C30.5566 89.6328 30.4468 89.2349 30.4468 88.7954C30.4468 88.3706 30.5298 87.9971 30.6958 87.6748C30.8618 87.3477 31.1011 87.0767 31.4136 86.8618C31.7261 86.6421 32.1021 86.4761 32.5415 86.3638C32.981 86.2515 33.4717 86.1953 34.0137 86.1953H35.5884ZM45.52 87.2134H44.0625V86.3784H45.4102C45.7861 86.3784 46.084 86.332 46.3037 86.2393C46.5234 86.1416 46.6797 86.0073 46.7725 85.8364C46.8652 85.6655 46.9116 85.4653 46.9116 85.2358C46.9116 85.0308 46.8579 84.8379 46.7505 84.6572C46.6479 84.4717 46.4819 84.3228 46.2524 84.2104C46.0229 84.0933 45.7153 84.0347 45.3296 84.0347C45.0171 84.0347 44.7339 84.0908 44.48 84.2031C44.2261 84.3105 44.0234 84.4595 43.8721 84.6499C43.7256 84.8354 43.6523 85.0454 43.6523 85.2798H42.2974C42.2974 84.7964 42.4341 84.3813 42.7075 84.0347C42.9858 83.6831 43.3545 83.4121 43.8135 83.2217C44.2773 83.0312 44.7827 82.936 45.3296 82.936C45.7886 82.936 46.1987 82.9873 46.5601 83.0898C46.9263 83.1875 47.2363 83.334 47.4902 83.5293C47.7441 83.7197 47.937 83.959 48.0688 84.2471C48.2056 84.5303 48.2739 84.8599 48.2739 85.2358C48.2739 85.5044 48.2104 85.7583 48.0835 85.9976C47.9565 86.2368 47.7734 86.4492 47.5342 86.6348C47.2949 86.8154 47.0044 86.957 46.6626 87.0596C46.3257 87.1621 45.9448 87.2134 45.52 87.2134ZM44.0625 86.7007H45.52C45.9937 86.7007 46.4111 86.7471 46.7725 86.8398C47.1338 86.9277 47.4365 87.0596 47.6807 87.2354C47.9248 87.4111 48.1079 87.6284 48.23 87.8872C48.3569 88.1411 48.4204 88.4341 48.4204 88.7661C48.4204 89.1372 48.3447 89.4717 48.1934 89.7695C48.0469 90.0625 47.8369 90.3115 47.5635 90.5166C47.29 90.7217 46.9629 90.8779 46.582 90.9854C46.2061 91.0928 45.7886 91.1465 45.3296 91.1465C44.8169 91.1465 44.3188 91.0586 43.8354 90.8828C43.3521 90.707 42.9541 90.436 42.6416 90.0698C42.3291 89.6987 42.1729 89.2275 42.1729 88.6562H43.5278C43.5278 88.8955 43.6035 89.1226 43.7549 89.3374C43.9062 89.5522 44.1162 89.7256 44.3848 89.8574C44.6582 89.9893 44.9731 90.0552 45.3296 90.0552C45.7104 90.0552 46.0278 89.9966 46.2817 89.8794C46.5356 89.7622 46.7261 89.606 46.853 89.4106C46.9849 89.2153 47.0508 89.0029 47.0508 88.7734C47.0508 88.4756 46.9922 88.2363 46.875 88.0557C46.7578 87.875 46.5771 87.7432 46.333 87.6602C46.0938 87.5723 45.7861 87.5283 45.4102 87.5283H44.0625V86.7007ZM54.8511 89.645V85.5654C54.8511 85.2529 54.7876 84.9819 54.6606 84.7524C54.5386 84.5181 54.353 84.3374 54.104 84.2104C53.855 84.0835 53.5474 84.02 53.1812 84.02C52.8394 84.02 52.5391 84.0786 52.2803 84.1958C52.0264 84.313 51.8262 84.4668 51.6797 84.6572C51.5381 84.8477 51.4673 85.0527 51.4673 85.2725H50.1123C50.1123 84.9893 50.1855 84.7085 50.332 84.4302C50.4785 84.1519 50.6885 83.9004 50.9619 83.6758C51.2402 83.4463 51.5723 83.2656 51.958 83.1338C52.3486 82.9971 52.7832 82.9287 53.2617 82.9287C53.8379 82.9287 54.3457 83.0264 54.7852 83.2217C55.2295 83.417 55.5762 83.7124 55.8252 84.1079C56.0791 84.4985 56.2061 84.9893 56.2061 85.5801V89.2715C56.2061 89.5352 56.228 89.8159 56.272 90.1138C56.3208 90.4116 56.3916 90.668 56.4844 90.8828V91H55.0708C55.0024 90.8438 54.9487 90.6362 54.9097 90.3774C54.8706 90.1138 54.8511 89.8696 54.8511 89.645ZM55.0854 86.1953L55.1001 87.1475H53.7305C53.3447 87.1475 53.0005 87.1792 52.6978 87.2427C52.395 87.3013 52.1411 87.3916 51.936 87.5137C51.731 87.6357 51.5747 87.7896 51.4673 87.9751C51.3599 88.1558 51.3062 88.3682 51.3062 88.6123C51.3062 88.8613 51.3623 89.0884 51.4746 89.2935C51.5869 89.4985 51.7554 89.6621 51.98 89.7842C52.2095 89.9014 52.4902 89.96 52.8223 89.96C53.2373 89.96 53.6035 89.8721 53.9209 89.6963C54.2383 89.5205 54.4897 89.3057 54.6753 89.0518C54.8657 88.7979 54.9683 88.5513 54.9829 88.312L55.5615 88.9639C55.5273 89.1689 55.4346 89.396 55.2832 89.645C55.1318 89.894 54.9292 90.1333 54.6753 90.3628C54.4263 90.5874 54.1284 90.7754 53.7817 90.9268C53.4399 91.0732 53.0542 91.1465 52.6245 91.1465C52.0874 91.1465 51.6162 91.0415 51.2109 90.8315C50.8105 90.6216 50.498 90.3408 50.2734 89.9893C50.0537 89.6328 49.9438 89.2349 49.9438 88.7954C49.9438 88.3706 50.0269 87.9971 50.1929 87.6748C50.3589 87.3477 50.5981 87.0767 50.9106 86.8618C51.2231 86.6421 51.5991 86.4761 52.0386 86.3638C52.478 86.2515 52.9688 86.1953 53.5107 86.1953H55.0854ZM59.9414 87.2207H61.4062L59.1138 91H57.6489L59.9414 87.2207ZM61.0767 83.0752H64.3872V91H63.0322V84.1738H61.0767C60.6909 84.1738 60.376 84.2397 60.1318 84.3716C59.8877 84.4985 59.7095 84.6646 59.5972 84.8696C59.4849 85.0747 59.4287 85.2871 59.4287 85.5068C59.4287 85.7217 59.48 85.9292 59.5825 86.1294C59.6851 86.3247 59.8462 86.4858 60.0659 86.6128C60.2856 86.7397 60.5688 86.8032 60.9155 86.8032H63.3984V87.9165H60.9155C60.4614 87.9165 60.0586 87.8555 59.707 87.7334C59.3555 87.6113 59.0576 87.4429 58.8135 87.228C58.5693 87.0083 58.3838 86.752 58.2568 86.459C58.1299 86.1611 58.0664 85.8389 58.0664 85.4922C58.0664 85.1455 58.1323 84.8257 58.2642 84.5327C58.4009 84.2397 58.5962 83.9834 58.8501 83.7637C59.1089 83.5439 59.4238 83.3755 59.7949 83.2583C60.1709 83.1362 60.5981 83.0752 61.0767 83.0752ZM70.2905 87.5137H67.6904L67.6758 86.4297H69.7998C70.2197 86.4297 70.5688 86.3882 70.8472 86.3052C71.1304 86.2222 71.3428 86.0977 71.4844 85.9316C71.626 85.7656 71.6968 85.5605 71.6968 85.3164C71.6968 85.126 71.6553 84.96 71.5723 84.8184C71.4941 84.6719 71.3745 84.5522 71.2134 84.4595C71.0522 84.3618 70.8521 84.291 70.6128 84.2471C70.3784 84.1982 70.1025 84.1738 69.7852 84.1738H68.0493V91H66.6943V83.0752H69.7852C70.2881 83.0752 70.7397 83.1191 71.1401 83.207C71.5454 83.2949 71.8896 83.4292 72.1729 83.6099C72.4609 83.7856 72.6807 84.0103 72.832 84.2837C72.9834 84.5571 73.0591 84.8794 73.0591 85.2505C73.0591 85.4897 73.0103 85.7168 72.9126 85.9316C72.8149 86.1465 72.6709 86.3369 72.4805 86.5029C72.29 86.6689 72.0557 86.8057 71.7773 86.9131C71.499 87.0156 71.1792 87.0815 70.8179 87.1108L70.2905 87.5137ZM70.2905 91H67.1997L67.8735 89.9014H70.2905C70.6665 89.9014 70.979 89.855 71.228 89.7622C71.4771 89.6646 71.6626 89.5278 71.7847 89.3521C71.9116 89.1714 71.9751 88.9565 71.9751 88.7075C71.9751 88.4585 71.9116 88.2461 71.7847 88.0703C71.6626 87.8896 71.4771 87.7529 71.228 87.6602C70.979 87.5625 70.6665 87.5137 70.2905 87.5137H68.2324L68.2471 86.4297H70.8179L71.3086 86.8398C71.7432 86.874 72.1118 86.9814 72.4146 87.1621C72.7173 87.3428 72.9468 87.5723 73.103 87.8506C73.2593 88.124 73.3374 88.4219 73.3374 88.7441C73.3374 89.1152 73.2666 89.4424 73.125 89.7256C72.9883 90.0088 72.7881 90.2456 72.5244 90.436C72.2607 90.6216 71.9409 90.7632 71.5649 90.8608C71.189 90.9536 70.7642 91 70.2905 91ZM76.626 83.0752V91H75.271V83.0752H76.626ZM81.8262 83.0752L78.0688 87.6162H76.1719L75.9668 86.4297H77.5195L80.1782 83.0752H81.8262ZM80.3687 91L77.4536 87.4111L78.3252 86.4297L82.0898 91H80.3687ZM87.9419 89.645V85.5654C87.9419 85.2529 87.8784 84.9819 87.7515 84.7524C87.6294 84.5181 87.4438 84.3374 87.1948 84.2104C86.9458 84.0835 86.6382 84.02 86.272 84.02C85.9302 84.02 85.6299 84.0786 85.3711 84.1958C85.1172 84.313 84.917 84.4668 84.7705 84.6572C84.6289 84.8477 84.5581 85.0527 84.5581 85.2725H83.2031C83.2031 84.9893 83.2764 84.7085 83.4229 84.4302C83.5693 84.1519 83.7793 83.9004 84.0527 83.6758C84.3311 83.4463 84.6631 83.2656 85.0488 83.1338C85.4395 82.9971 85.874 82.9287 86.3525 82.9287C86.9287 82.9287 87.4365 83.0264 87.876 83.2217C88.3203 83.417 88.667 83.7124 88.916 84.1079C89.1699 84.4985 89.2969 84.9893 89.2969 85.5801V89.2715C89.2969 89.5352 89.3188 89.8159 89.3628 90.1138C89.4116 90.4116 89.4824 90.668 89.5752 90.8828V91H88.1616C88.0933 90.8438 88.0396 90.6362 88.0005 90.3774C87.9614 90.1138 87.9419 89.8696 87.9419 89.645ZM88.1763 86.1953L88.1909 87.1475H86.8213C86.4355 87.1475 86.0913 87.1792 85.7886 87.2427C85.4858 87.3013 85.2319 87.3916 85.0269 87.5137C84.8218 87.6357 84.6655 87.7896 84.5581 87.9751C84.4507 88.1558 84.397 88.3682 84.397 88.6123C84.397 88.8613 84.4531 89.0884 84.5654 89.2935C84.6777 89.4985 84.8462 89.6621 85.0708 89.7842C85.3003 89.9014 85.5811 89.96 85.9131 89.96C86.3281 89.96 86.6943 89.8721 87.0117 89.6963C87.3291 89.5205 87.5806 89.3057 87.7661 89.0518C87.9565 88.7979 88.0591 88.5513 88.0737 88.312L88.6523 88.9639C88.6182 89.1689 88.5254 89.396 88.374 89.645C88.2227 89.894 88.02 90.1333 87.7661 90.3628C87.5171 90.5874 87.2192 90.7754 86.8726 90.9268C86.5308 91.0732 86.145 91.1465 85.7153 91.1465C85.1782 91.1465 84.707 91.0415 84.3018 90.8315C83.9014 90.6216 83.5889 90.3408 83.3643 89.9893C83.1445 89.6328 83.0347 89.2349 83.0347 88.7954C83.0347 88.3706 83.1177 87.9971 83.2837 87.6748C83.4497 87.3477 83.689 87.0767 84.0015 86.8618C84.314 86.6421 84.6899 86.4761 85.1294 86.3638C85.5688 86.2515 86.0596 86.1953 86.6016 86.1953H88.1763ZM97.3755 90.1797L99.5801 83.0752H101.03L97.8516 92.2231C97.7783 92.4185 97.6807 92.6284 97.5586 92.853C97.4414 93.0825 97.29 93.2998 97.1045 93.5049C96.9189 93.71 96.6943 93.876 96.4307 94.0029C96.1719 94.1348 95.8618 94.2007 95.5005 94.2007C95.3931 94.2007 95.2563 94.186 95.0903 94.1567C94.9243 94.1274 94.8071 94.103 94.7388 94.0835L94.7314 92.9849C94.7705 92.9897 94.8315 92.9946 94.9146 92.9995C95.0024 93.0093 95.0635 93.0142 95.0977 93.0142C95.4053 93.0142 95.6665 92.9727 95.8813 92.8896C96.0962 92.8115 96.2769 92.6772 96.4233 92.4868C96.5747 92.3013 96.7041 92.0449 96.8115 91.7178L97.3755 90.1797ZM95.7568 83.0752L97.8149 89.2275L98.1665 90.6558L97.1924 91.1538L94.2773 83.0752H95.7568ZM105.322 90.0332C105.645 90.0332 105.942 89.9673 106.216 89.8354C106.489 89.7036 106.714 89.5229 106.89 89.2935C107.065 89.0591 107.166 88.793 107.19 88.4951H108.479C108.455 88.9639 108.296 89.4009 108.003 89.8062C107.715 90.2065 107.336 90.5312 106.868 90.7803C106.399 91.0244 105.884 91.1465 105.322 91.1465C104.727 91.1465 104.207 91.0415 103.762 90.8315C103.323 90.6216 102.957 90.3335 102.664 89.9673C102.375 89.6011 102.158 89.1812 102.012 88.7075C101.87 88.229 101.799 87.7236 101.799 87.1914V86.8838C101.799 86.3516 101.87 85.8486 102.012 85.375C102.158 84.8965 102.375 84.4741 102.664 84.1079C102.957 83.7417 103.323 83.4536 103.762 83.2437C104.207 83.0337 104.727 82.9287 105.322 82.9287C105.942 82.9287 106.484 83.0557 106.948 83.3096C107.412 83.5586 107.776 83.9004 108.04 84.335C108.308 84.7646 108.455 85.2529 108.479 85.7998H107.19C107.166 85.4727 107.073 85.1772 106.912 84.9136C106.755 84.6499 106.541 84.4399 106.267 84.2837C105.999 84.1226 105.684 84.042 105.322 84.042C104.907 84.042 104.558 84.125 104.275 84.291C103.997 84.4521 103.774 84.6719 103.608 84.9502C103.447 85.2236 103.33 85.5288 103.257 85.8657C103.188 86.1978 103.154 86.5371 103.154 86.8838V87.1914C103.154 87.5381 103.188 87.8799 103.257 88.2168C103.325 88.5537 103.44 88.8589 103.601 89.1323C103.767 89.4058 103.989 89.6255 104.268 89.7915C104.551 89.9526 104.902 90.0332 105.322 90.0332ZM115.283 83.0752V84.1958H111.277V83.0752H115.283ZM111.475 83.0752V91H110.12V83.0752H111.475ZM116.484 83.0752V91H115.122V83.0752H116.484ZM121.948 91.1465C121.396 91.1465 120.896 91.0537 120.447 90.8682C120.002 90.6777 119.619 90.4116 119.297 90.0698C118.979 89.728 118.735 89.3228 118.564 88.854C118.394 88.3853 118.308 87.8726 118.308 87.3159V87.0083C118.308 86.3638 118.403 85.79 118.594 85.2871C118.784 84.7793 119.043 84.3496 119.37 83.998C119.697 83.6465 120.068 83.3804 120.483 83.1997C120.898 83.019 121.328 82.9287 121.772 82.9287C122.339 82.9287 122.827 83.0264 123.237 83.2217C123.652 83.417 123.992 83.6904 124.255 84.042C124.519 84.3887 124.714 84.7988 124.841 85.2725C124.968 85.7412 125.032 86.2539 125.032 86.8105V87.4185H119.114V86.3125H123.677V86.21C123.657 85.8584 123.584 85.5166 123.457 85.1846C123.335 84.8525 123.14 84.5791 122.871 84.3643C122.603 84.1494 122.236 84.042 121.772 84.042C121.465 84.042 121.182 84.1079 120.923 84.2397C120.664 84.3667 120.442 84.5571 120.256 84.811C120.071 85.0649 119.927 85.375 119.824 85.7412C119.722 86.1074 119.67 86.5298 119.67 87.0083V87.3159C119.67 87.6919 119.722 88.0459 119.824 88.3779C119.932 88.7051 120.085 88.9932 120.286 89.2422C120.491 89.4912 120.737 89.6865 121.025 89.8281C121.318 89.9697 121.65 90.0405 122.021 90.0405C122.5 90.0405 122.905 89.9429 123.237 89.7476C123.569 89.5522 123.86 89.291 124.109 88.9639L124.929 89.6157C124.758 89.8745 124.541 90.1211 124.277 90.3555C124.014 90.5898 123.689 90.7803 123.303 90.9268C122.922 91.0732 122.471 91.1465 121.948 91.1465ZM126.731 83.0752H128.086V89.8867H130.986V83.0752H132.349V89.8867H135.242V83.0752H136.597V91H126.731V83.0752ZM144.133 86.5103V87.6089H139.944V86.5103H144.133ZM140.229 83.0752V91H138.875V83.0752H140.229ZM145.232 83.0752V91H143.87V83.0752H145.232ZM147.056 87.1255V86.957C147.056 86.3857 147.139 85.856 147.305 85.3677C147.471 84.8745 147.71 84.4473 148.022 84.0859C148.335 83.7197 148.713 83.4365 149.158 83.2363C149.602 83.0312 150.1 82.9287 150.652 82.9287C151.208 82.9287 151.709 83.0312 152.153 83.2363C152.603 83.4365 152.983 83.7197 153.296 84.0859C153.613 84.4473 153.855 84.8745 154.021 85.3677C154.187 85.856 154.27 86.3857 154.27 86.957V87.1255C154.27 87.6968 154.187 88.2266 154.021 88.7148C153.855 89.2031 153.613 89.6304 153.296 89.9966C152.983 90.3579 152.605 90.6411 152.161 90.8462C151.721 91.0464 151.223 91.1465 150.667 91.1465C150.11 91.1465 149.609 91.0464 149.165 90.8462C148.721 90.6411 148.34 90.3579 148.022 89.9966C147.71 89.6304 147.471 89.2031 147.305 88.7148C147.139 88.2266 147.056 87.6968 147.056 87.1255ZM148.411 86.957V87.1255C148.411 87.521 148.457 87.8945 148.55 88.2461C148.643 88.5928 148.782 88.9004 148.967 89.1689C149.158 89.4375 149.395 89.6499 149.678 89.8062C149.961 89.9575 150.291 90.0332 150.667 90.0332C151.038 90.0332 151.362 89.9575 151.641 89.8062C151.924 89.6499 152.158 89.4375 152.344 89.1689C152.529 88.9004 152.668 88.5928 152.761 88.2461C152.859 87.8945 152.908 87.521 152.908 87.1255V86.957C152.908 86.5664 152.859 86.1978 152.761 85.8511C152.668 85.4995 152.527 85.1895 152.336 84.9209C152.151 84.6475 151.917 84.4326 151.633 84.2764C151.355 84.1201 151.028 84.042 150.652 84.042C150.281 84.042 149.954 84.1201 149.67 84.2764C149.392 84.4326 149.158 84.6475 148.967 84.9209C148.782 85.1895 148.643 85.4995 148.55 85.8511C148.457 86.1978 148.411 86.5664 148.411 86.957ZM159.331 87.1255V86.957C159.331 86.3857 159.414 85.856 159.58 85.3677C159.746 84.8745 159.985 84.4473 160.298 84.0859C160.61 83.7197 160.989 83.4365 161.433 83.2363C161.877 83.0312 162.375 82.9287 162.927 82.9287C163.484 82.9287 163.984 83.0312 164.429 83.2363C164.878 83.4365 165.259 83.7197 165.571 84.0859C165.889 84.4473 166.13 84.8745 166.296 85.3677C166.462 85.856 166.545 86.3857 166.545 86.957V87.1255C166.545 87.6968 166.462 88.2266 166.296 88.7148C166.13 89.2031 165.889 89.6304 165.571 89.9966C165.259 90.3579 164.88 90.6411 164.436 90.8462C163.997 91.0464 163.499 91.1465 162.942 91.1465C162.385 91.1465 161.885 91.0464 161.44 90.8462C160.996 90.6411 160.615 90.3579 160.298 89.9966C159.985 89.6304 159.746 89.2031 159.58 88.7148C159.414 88.2266 159.331 87.6968 159.331 87.1255ZM160.686 86.957V87.1255C160.686 87.521 160.732 87.8945 160.825 88.2461C160.918 88.5928 161.057 88.9004 161.243 89.1689C161.433 89.4375 161.67 89.6499 161.953 89.8062C162.236 89.9575 162.566 90.0332 162.942 90.0332C163.313 90.0332 163.638 89.9575 163.916 89.8062C164.199 89.6499 164.434 89.4375 164.619 89.1689C164.805 88.9004 164.944 88.5928 165.037 88.2461C165.134 87.8945 165.183 87.521 165.183 87.1255V86.957C165.183 86.5664 165.134 86.1978 165.037 85.8511C164.944 85.4995 164.802 85.1895 164.612 84.9209C164.426 84.6475 164.192 84.4326 163.909 84.2764C163.63 84.1201 163.303 84.042 162.927 84.042C162.556 84.042 162.229 84.1201 161.946 84.2764C161.667 84.4326 161.433 84.6475 161.243 84.9209C161.057 85.1895 160.918 85.4995 160.825 85.8511C160.732 86.1978 160.686 86.5664 160.686 86.957ZM171.313 83.0752V91H169.951V83.0752H171.313ZM173.972 83.0752V84.1738H167.344V83.0752H173.972ZM180.586 83.0752V84.1958H176.58V83.0752H180.586ZM176.777 83.0752V91H175.422V83.0752H176.777ZM181.787 83.0752V91H180.425V83.0752H181.787ZM185.317 84.5986V94.0469H183.955V83.0752H185.2L185.317 84.5986ZM190.657 86.9717V87.1255C190.657 87.7017 190.588 88.2363 190.452 88.7295C190.315 89.2178 190.115 89.6426 189.851 90.0039C189.592 90.3652 189.272 90.646 188.892 90.8462C188.511 91.0464 188.074 91.1465 187.581 91.1465C187.078 91.1465 186.633 91.0635 186.248 90.8975C185.862 90.7314 185.535 90.4897 185.266 90.1724C184.998 89.855 184.783 89.4741 184.622 89.0298C184.465 88.5854 184.358 88.085 184.299 87.5283V86.708C184.358 86.1221 184.468 85.5972 184.629 85.1333C184.79 84.6694 185.002 84.2739 185.266 83.9468C185.535 83.6147 185.859 83.3633 186.24 83.1924C186.621 83.0166 187.061 82.9287 187.559 82.9287C188.057 82.9287 188.499 83.0264 188.884 83.2217C189.27 83.4121 189.595 83.6855 189.858 84.042C190.122 84.3984 190.32 84.8257 190.452 85.3237C190.588 85.8169 190.657 86.3662 190.657 86.9717ZM189.294 87.1255V86.9717C189.294 86.5762 189.253 86.2051 189.17 85.8584C189.087 85.5068 188.958 85.1992 188.782 84.9355C188.611 84.667 188.391 84.457 188.123 84.3057C187.854 84.1494 187.534 84.0713 187.163 84.0713C186.821 84.0713 186.523 84.1299 186.27 84.2471C186.021 84.3643 185.808 84.5229 185.632 84.7231C185.457 84.9185 185.312 85.1431 185.2 85.397C185.093 85.646 185.012 85.9048 184.958 86.1733V88.0703C185.056 88.4121 185.193 88.7344 185.369 89.0371C185.544 89.335 185.779 89.5767 186.072 89.7622C186.365 89.9429 186.733 90.0332 187.178 90.0332C187.544 90.0332 187.859 89.9575 188.123 89.8062C188.391 89.6499 188.611 89.4375 188.782 89.1689C188.958 88.9004 189.087 88.5928 189.17 88.2461C189.253 87.8945 189.294 87.521 189.294 87.1255ZM197.058 89.645V85.5654C197.058 85.2529 196.995 84.9819 196.868 84.7524C196.746 84.5181 196.56 84.3374 196.311 84.2104C196.062 84.0835 195.754 84.02 195.388 84.02C195.046 84.02 194.746 84.0786 194.487 84.1958C194.233 84.313 194.033 84.4668 193.887 84.6572C193.745 84.8477 193.674 85.0527 193.674 85.2725H192.319C192.319 84.9893 192.393 84.7085 192.539 84.4302C192.686 84.1519 192.896 83.9004 193.169 83.6758C193.447 83.4463 193.779 83.2656 194.165 83.1338C194.556 82.9971 194.99 82.9287 195.469 82.9287C196.045 82.9287 196.553 83.0264 196.992 83.2217C197.437 83.417 197.783 83.7124 198.032 84.1079C198.286 84.4985 198.413 84.9893 198.413 85.5801V89.2715C198.413 89.5352 198.435 89.8159 198.479 90.1138C198.528 90.4116 198.599 90.668 198.691 90.8828V91H197.278C197.209 90.8438 197.156 90.6362 197.117 90.3774C197.078 90.1138 197.058 89.8696 197.058 89.645ZM197.292 86.1953L197.307 87.1475H195.938C195.552 87.1475 195.208 87.1792 194.905 87.2427C194.602 87.3013 194.348 87.3916 194.143 87.5137C193.938 87.6357 193.782 87.7896 193.674 87.9751C193.567 88.1558 193.513 88.3682 193.513 88.6123C193.513 88.8613 193.569 89.0884 193.682 89.2935C193.794 89.4985 193.962 89.6621 194.187 89.7842C194.417 89.9014 194.697 89.96 195.029 89.96C195.444 89.96 195.811 89.8721 196.128 89.6963C196.445 89.5205 196.697 89.3057 196.882 89.0518C197.073 88.7979 197.175 88.5513 197.19 88.312L197.769 88.9639C197.734 89.1689 197.642 89.396 197.49 89.645C197.339 89.894 197.136 90.1333 196.882 90.3628C196.633 90.5874 196.335 90.7754 195.989 90.9268C195.647 91.0732 195.261 91.1465 194.832 91.1465C194.294 91.1465 193.823 91.0415 193.418 90.8315C193.018 90.6216 192.705 90.3408 192.48 89.9893C192.261 89.6328 192.151 89.2349 192.151 88.7954C192.151 88.3706 192.234 87.9971 192.4 87.6748C192.566 87.3477 192.805 87.0767 193.118 86.8618C193.43 86.6421 193.806 86.4761 194.246 86.3638C194.685 86.2515 195.176 86.1953 195.718 86.1953H197.292ZM204.265 87.5137H201.665L201.65 86.4297H203.774C204.194 86.4297 204.543 86.3882 204.822 86.3052C205.105 86.2222 205.317 86.0977 205.459 85.9316C205.601 85.7656 205.671 85.5605 205.671 85.3164C205.671 85.126 205.63 84.96 205.547 84.8184C205.469 84.6719 205.349 84.5522 205.188 84.4595C205.027 84.3618 204.827 84.291 204.587 84.2471C204.353 84.1982 204.077 84.1738 203.76 84.1738H202.024V91H200.669V83.0752H203.76C204.263 83.0752 204.714 83.1191 205.115 83.207C205.52 83.2949 205.864 83.4292 206.147 83.6099C206.436 83.7856 206.655 84.0103 206.807 84.2837C206.958 84.5571 207.034 84.8794 207.034 85.2505C207.034 85.4897 206.985 85.7168 206.887 85.9316C206.79 86.1465 206.646 86.3369 206.455 86.5029C206.265 86.6689 206.03 86.8057 205.752 86.9131C205.474 87.0156 205.154 87.0815 204.792 87.1108L204.265 87.5137ZM204.265 91H201.174L201.848 89.9014H204.265C204.641 89.9014 204.954 89.855 205.203 89.7622C205.452 89.6646 205.637 89.5278 205.759 89.3521C205.886 89.1714 205.95 88.9565 205.95 88.7075C205.95 88.4585 205.886 88.2461 205.759 88.0703C205.637 87.8896 205.452 87.7529 205.203 87.6602C204.954 87.5625 204.641 87.5137 204.265 87.5137H202.207L202.222 86.4297H204.792L205.283 86.8398C205.718 86.874 206.086 86.9814 206.389 87.1621C206.692 87.3428 206.921 87.5723 207.078 87.8506C207.234 88.124 207.312 88.4219 207.312 88.7441C207.312 89.1152 207.241 89.4424 207.1 89.7256C206.963 90.0088 206.763 90.2456 206.499 90.436C206.235 90.6216 205.916 90.7632 205.54 90.8608C205.164 90.9536 204.739 91 204.265 91ZM214.424 83.0752V84.1958H210.593V83.0752H214.424ZM215.618 83.0752V91H214.263V83.0752H215.618ZM210.264 83.0752H211.626L211.421 86.8984C211.387 87.4893 211.331 88.0117 211.252 88.4658C211.179 88.915 211.077 89.3008 210.945 89.623C210.818 89.9453 210.657 90.209 210.461 90.4141C210.271 90.6143 210.042 90.7632 209.773 90.8608C209.504 90.9536 209.194 91 208.843 91H208.418V89.8062L208.711 89.7842C208.921 89.7695 209.099 89.7207 209.246 89.6377C209.397 89.5547 209.524 89.4326 209.626 89.2715C209.729 89.1055 209.812 88.8931 209.875 88.6343C209.944 88.3755 209.995 88.0679 210.029 87.7114C210.068 87.355 210.098 86.9399 210.117 86.4663L210.264 83.0752ZM221.089 91.1465C220.537 91.1465 220.037 91.0537 219.587 90.8682C219.143 90.6777 218.76 90.4116 218.438 90.0698C218.12 89.728 217.876 89.3228 217.705 88.854C217.534 88.3853 217.449 87.8726 217.449 87.3159V87.0083C217.449 86.3638 217.544 85.79 217.734 85.2871C217.925 84.7793 218.184 84.3496 218.511 83.998C218.838 83.6465 219.209 83.3804 219.624 83.1997C220.039 83.019 220.469 82.9287 220.913 82.9287C221.479 82.9287 221.968 83.0264 222.378 83.2217C222.793 83.417 223.132 83.6904 223.396 84.042C223.66 84.3887 223.855 84.7988 223.982 85.2725C224.109 85.7412 224.172 86.2539 224.172 86.8105V87.4185H218.254V86.3125H222.817V86.21C222.798 85.8584 222.725 85.5166 222.598 85.1846C222.476 84.8525 222.28 84.5791 222.012 84.3643C221.743 84.1494 221.377 84.042 220.913 84.042C220.605 84.042 220.322 84.1079 220.063 84.2397C219.805 84.3667 219.583 84.5571 219.397 84.811C219.211 85.0649 219.067 85.375 218.965 85.7412C218.862 86.1074 218.811 86.5298 218.811 87.0083V87.3159C218.811 87.6919 218.862 88.0459 218.965 88.3779C219.072 88.7051 219.226 88.9932 219.426 89.2422C219.631 89.4912 219.878 89.6865 220.166 89.8281C220.459 89.9697 220.791 90.0405 221.162 90.0405C221.641 90.0405 222.046 89.9429 222.378 89.7476C222.71 89.5522 223 89.291 223.25 88.9639L224.07 89.6157C223.899 89.8745 223.682 90.1211 223.418 90.3555C223.154 90.5898 222.83 90.7803 222.444 90.9268C222.063 91.0732 221.611 91.1465 221.089 91.1465ZM231.13 86.5103V87.6089H226.941V86.5103H231.13ZM227.227 83.0752V91H225.872V83.0752H227.227ZM232.229 83.0752V91H230.867V83.0752H232.229ZM239.084 89.645V85.5654C239.084 85.2529 239.021 84.9819 238.894 84.7524C238.772 84.5181 238.586 84.3374 238.337 84.2104C238.088 84.0835 237.781 84.02 237.415 84.02C237.073 84.02 236.772 84.0786 236.514 84.1958C236.26 84.313 236.06 84.4668 235.913 84.6572C235.771 84.8477 235.701 85.0527 235.701 85.2725H234.346C234.346 84.9893 234.419 84.7085 234.565 84.4302C234.712 84.1519 234.922 83.9004 235.195 83.6758C235.474 83.4463 235.806 83.2656 236.191 83.1338C236.582 82.9971 237.017 82.9287 237.495 82.9287C238.071 82.9287 238.579 83.0264 239.019 83.2217C239.463 83.417 239.81 83.7124 240.059 84.1079C240.312 84.4985 240.439 84.9893 240.439 85.5801V89.2715C240.439 89.5352 240.461 89.8159 240.505 90.1138C240.554 90.4116 240.625 90.668 240.718 90.8828V91H239.304C239.236 90.8438 239.182 90.6362 239.143 90.3774C239.104 90.1138 239.084 89.8696 239.084 89.645ZM239.319 86.1953L239.333 87.1475H237.964C237.578 87.1475 237.234 87.1792 236.931 87.2427C236.628 87.3013 236.375 87.3916 236.169 87.5137C235.964 87.6357 235.808 87.7896 235.701 87.9751C235.593 88.1558 235.54 88.3682 235.54 88.6123C235.54 88.8613 235.596 89.0884 235.708 89.2935C235.82 89.4985 235.989 89.6621 236.213 89.7842C236.443 89.9014 236.724 89.96 237.056 89.96C237.471 89.96 237.837 89.8721 238.154 89.6963C238.472 89.5205 238.723 89.3057 238.909 89.0518C239.099 88.7979 239.202 88.5513 239.216 88.312L239.795 88.9639C239.761 89.1689 239.668 89.396 239.517 89.645C239.365 89.894 239.163 90.1333 238.909 90.3628C238.66 90.5874 238.362 90.7754 238.015 90.9268C237.673 91.0732 237.288 91.1465 236.858 91.1465C236.321 91.1465 235.85 91.0415 235.444 90.8315C235.044 90.6216 234.731 90.3408 234.507 89.9893C234.287 89.6328 234.177 89.2349 234.177 88.7954C234.177 88.3706 234.26 87.9971 234.426 87.6748C234.592 87.3477 234.832 87.0767 235.144 86.8618C235.457 86.6421 235.833 86.4761 236.272 86.3638C236.711 86.2515 237.202 86.1953 237.744 86.1953H239.319Z" fill="black"/>
<circle cx="121" cy="14" r="14" fill="#F5DE4C"/>
<path fill-rule="evenodd" clip-rule="evenodd" d="M129.024 8.29289C128.634 7.90237 128.001 7.90237 127.61 8.29289L119.086 16.8168L114.707 12.4378C114.317 12.0472 113.683 12.0472 113.293 12.4378C112.902 12.8283 112.902 13.4615 113.293 13.852L118.306 18.8656C118.388 18.9467 118.479 19.0111 118.577 19.0585C118.963 19.3001 119.478 19.2531 119.814 18.9173L129.024 9.70711C129.415 9.31658 129.415 8.68342 129.024 8.29289Z" fill="white"/>
</svg>
