<svg width="36" height="36" viewBox="0 0 36 36" fill="none" xmlns="http://www.w3.org/2000/svg">
<circle cx="18" cy="18" r="18" fill="#D5D5D5"/>
<path fill-rule="evenodd" clip-rule="evenodd" d="M25.556 10.7072C25.1654 10.3167 24.5323 10.3167 24.1417 10.7072L18.1315 16.7174L12.1214 10.7073C11.7309 10.3168 11.0977 10.3168 10.7072 10.7073C10.3167 11.0978 10.3167 11.731 10.7072 12.1215L16.7173 18.1316L10.7067 24.1422C10.3162 24.5328 10.3162 25.1659 10.7067 25.5564C11.0972 25.947 11.7304 25.947 12.1209 25.5564L18.1315 19.5458L24.1422 25.5565C24.5328 25.9471 25.1659 25.9471 25.5564 25.5565C25.947 25.166 25.947 24.5328 25.5564 24.1423L19.5457 18.1316L25.556 12.1214C25.9465 11.7309 25.9465 11.0977 25.556 10.7072Z" fill="black"/>
</svg>
